<?xml version="1.0" encoding="UTF-8" standalone="no"?>
<svg
   height="48px"
   viewBox="0 -960 960 960"
   width="48px"
   fill="#e8eaed"
   version="1.1"
   id="svg1"
   sodipodi:docname="edit_hovered.svg"
   inkscape:version="1.4 (e7c3feb100, 2024-10-09)"
   xmlns:inkscape="http://www.inkscape.org/namespaces/inkscape"
   xmlns:sodipodi="http://sodipodi.sourceforge.net/DTD/sodipodi-0.dtd"
   xmlns="http://www.w3.org/2000/svg"
   xmlns:svg="http://www.w3.org/2000/svg">
  <defs
     id="defs1" />
  <sodipodi:namedview
     id="namedview1"
     pagecolor="#505050"
     bordercolor="#eeeeee"
     borderopacity="1"
     inkscape:showpageshadow="0"
     inkscape:pageopacity="0"
     inkscape:pagecheckerboard="0"
     inkscape:deskcolor="#505050"
     inkscape:zoom="17.583333"
     inkscape:cx="24.028436"
     inkscape:cy="24"
     inkscape:window-width="1920"
     inkscape:window-height="1011"
     inkscape:window-x="0"
     inkscape:window-y="0"
     inkscape:window-maximized="1"
     inkscape:current-layer="svg1" />
  <path
     d="M180-180h44l472-471-44-44-472 471v44Zm-60 60v-128l575-574q8-8 19-12.5t23-4.5q11 0 22 4.5t20 12.5l44 44q9 9 13 20t4 22q0 11-4.5 22.5T823-694L248-120H120Zm659-617-41-41 41 41Zm-105 64-22-22 44 44-22-22Z"
     id="path1" />
  <path
     style="fill:#ffffff;fill-opacity:0.2;stroke-width:40"
     d="m 658.5782,-740.47394 -505.0237,501.61138 -5.6872,92.1327 84.17062,-2.27488 516.3981,-510.7109 z"
     id="path2" />
</svg>
